<svg xmlns="http://www.w3.org/2000/svg" width="900" height="500" viewBox="0 0 900 500">
<defs><linearGradient id="bg" x1="0" y1="0" x2="1" y2="1"><stop stop-color="#8a1117"/><stop offset=".55" stop-color="#25070a"/><stop offset="1" stop-color="#050505"/></linearGradient><radialGradient id="glow"><stop stop-color="#d31822" stop-opacity=".38"/><stop offset="1" stop-color="#d31822" stop-opacity="0"/></radialGradient></defs>
<rect width="900" height="500" fill="url(#bg)"/><circle cx="660" cy="251" r="270" fill="url(#glow)"/>
<circle cx="698" cy="417" r="138" fill="white" opacity="0.09"/><circle cx="711" cy="99" r="66" fill="white" opacity="0.10"/><circle cx="622" cy="226" r="93" fill="white" opacity="0.09"/><circle cx="259" cy="372" r="120" fill="white" opacity="0.12"/><circle cx="567" cy="213" r="95" fill="white" opacity="0.12"/><polyline points="70,337 150,400 230,373 310,372 390,400 470,332 550,394 630,313 710,246 790,289" fill="none" stroke="#d31822" stroke-width="10" opacity=".8"/><rect x="100" y="296" width="32" height="114" rx="5" fill="white" opacity=".16"/><rect x="205" y="230" width="32" height="180" rx="5" fill="white" opacity=".16"/><rect x="310" y="196" width="32" height="214" rx="5" fill="white" opacity=".16"/><rect x="415" y="204" width="32" height="206" rx="5" fill="white" opacity=".16"/><rect x="520" y="278" width="32" height="132" rx="5" fill="white" opacity=".16"/><rect x="625" y="219" width="32" height="191" rx="5" fill="white" opacity=".16"/><rect x="730" y="283" width="32" height="127" rx="5" fill="white" opacity=".16"/><rect x="835" y="319" width="32" height="91" rx="5" fill="white" opacity=".16"/>
<path d="M0 0H900V500H0Z" fill="none" stroke="white" opacity=".04"/>
</svg>