<svg xmlns="http://www.w3.org/2000/svg" width="900" height="500" viewBox="0 0 900 500">
<defs><linearGradient id="bg" x1="0" y1="0" x2="1" y2="1"><stop stop-color="#805b08"/><stop offset=".55" stop-color="#1f1704"/><stop offset="1" stop-color="#050505"/></linearGradient><radialGradient id="glow"><stop stop-color="#d49a12" stop-opacity=".38"/><stop offset="1" stop-color="#d49a12" stop-opacity="0"/></radialGradient></defs>
<rect width="900" height="500" fill="url(#bg)"/><circle cx="629" cy="283" r="270" fill="url(#glow)"/>
<circle cx="746" cy="96" r="60" fill="white" opacity="0.12"/><circle cx="339" cy="174" r="41" fill="white" opacity="0.11"/><circle cx="797" cy="431" r="126" fill="white" opacity="0.05"/><circle cx="208" cy="206" r="59" fill="white" opacity="0.16"/><circle cx="276" cy="48" r="88" fill="white" opacity="0.12"/><rect x="141" y="80" width="530" height="12" rx="6" fill="white" opacity="0.080"/><rect x="141" y="80" width="135" height="12" rx="6" fill="#d49a12" opacity=".75"/><rect x="133" y="118" width="261" height="12" rx="6" fill="white" opacity="0.086"/><rect x="133" y="118" width="41" height="12" rx="6" fill="#d49a12" opacity=".75"/><rect x="152" y="156" width="483" height="12" rx="6" fill="white" opacity="0.092"/><rect x="152" y="156" width="87" height="12" rx="6" fill="#d49a12" opacity=".75"/><rect x="109" y="194" width="356" height="12" rx="6" fill="white" opacity="0.098"/><rect x="109" y="194" width="106" height="12" rx="6" fill="#d49a12" opacity=".75"/><rect x="79" y="232" width="465" height="12" rx="6" fill="white" opacity="0.104"/><rect x="79" y="232" width="95" height="12" rx="6" fill="#d49a12" opacity=".75"/><rect x="135" y="270" width="349" height="12" rx="6" fill="white" opacity="0.110"/><rect x="135" y="270" width="48" height="12" rx="6" fill="#d49a12" opacity=".75"/><rect x="112" y="308" width="534" height="12" rx="6" fill="white" opacity="0.116"/><rect x="112" y="308" width="109" height="12" rx="6" fill="#d49a12" opacity=".75"/><rect x="145" y="346" width="484" height="12" rx="6" fill="white" opacity="0.122"/><rect x="145" y="346" width="65" height="12" rx="6" fill="#d49a12" opacity=".75"/><rect x="103" y="384" width="317" height="12" rx="6" fill="white" opacity="0.128"/><rect x="103" y="384" width="67" height="12" rx="6" fill="#d49a12" opacity=".75"/>
<path d="M0 0H900V500H0Z" fill="none" stroke="white" opacity=".04"/>
</svg>