<svg xmlns="http://www.w3.org/2000/svg" width="900" height="500" viewBox="0 0 900 500">
<defs><linearGradient id="bg" x1="0" y1="0" x2="1" y2="1"><stop stop-color="#0f6e52"/><stop offset=".55" stop-color="#071f18"/><stop offset="1" stop-color="#050505"/></linearGradient><radialGradient id="glow"><stop stop-color="#30b484" stop-opacity=".38"/><stop offset="1" stop-color="#30b484" stop-opacity="0"/></radialGradient></defs>
<rect width="900" height="500" fill="url(#bg)"/><circle cx="766" cy="184" r="270" fill="url(#glow)"/>
<circle cx="351" cy="207" r="74" fill="white" opacity="0.11"/><circle cx="349" cy="456" r="124" fill="white" opacity="0.06"/><circle cx="276" cy="420" r="76" fill="white" opacity="0.08"/><circle cx="479" cy="151" r="107" fill="white" opacity="0.10"/><circle cx="428" cy="96" r="57" fill="white" opacity="0.10"/><circle cx="278" cy="220" r="44" fill="white" opacity=".18"/><path d="M208 410 Q278 300 348 410" fill="white" opacity=".12"/><circle cx="394" cy="222" r="44" fill="white" opacity=".18"/><path d="M324 410 Q394 300 464 410" fill="white" opacity=".12"/><circle cx="542" cy="231" r="44" fill="white" opacity=".18"/><path d="M472 410 Q542 300 612 410" fill="white" opacity=".12"/><circle cx="666" cy="238" r="44" fill="white" opacity=".18"/><path d="M596 410 Q666 300 736 410" fill="white" opacity=".12"/>
<path d="M0 0H900V500H0Z" fill="none" stroke="white" opacity=".04"/>
</svg>