<svg xmlns="http://www.w3.org/2000/svg" width="900" height="500" viewBox="0 0 900 500">
<defs><linearGradient id="bg" x1="0" y1="0" x2="1" y2="1"><stop stop-color="#0f6e52"/><stop offset=".55" stop-color="#071f18"/><stop offset="1" stop-color="#050505"/></linearGradient><radialGradient id="glow"><stop stop-color="#30b484" stop-opacity=".38"/><stop offset="1" stop-color="#30b484" stop-opacity="0"/></radialGradient></defs>
<rect width="900" height="500" fill="url(#bg)"/><circle cx="571" cy="289" r="270" fill="url(#glow)"/>
<circle cx="547" cy="71" r="105" fill="white" opacity="0.08"/><circle cx="737" cy="81" r="37" fill="white" opacity="0.15"/><circle cx="302" cy="239" r="110" fill="white" opacity="0.11"/><circle cx="158" cy="227" r="53" fill="white" opacity="0.08"/><circle cx="569" cy="288" r="81" fill="white" opacity="0.15"/><polyline points="70,298 150,218 230,268 310,268 390,224 470,247 550,231 630,254 710,249 790,308" fill="none" stroke="#30b484" stroke-width="10" opacity=".8"/><rect x="100" y="275" width="32" height="135" rx="5" fill="white" opacity=".16"/><rect x="205" y="348" width="32" height="62" rx="5" fill="white" opacity=".16"/><rect x="310" y="329" width="32" height="81" rx="5" fill="white" opacity=".16"/><rect x="415" y="218" width="32" height="192" rx="5" fill="white" opacity=".16"/><rect x="520" y="298" width="32" height="112" rx="5" fill="white" opacity=".16"/><rect x="625" y="292" width="32" height="118" rx="5" fill="white" opacity=".16"/><rect x="730" y="348" width="32" height="62" rx="5" fill="white" opacity=".16"/><rect x="835" y="209" width="32" height="201" rx="5" fill="white" opacity=".16"/>
<path d="M0 0H900V500H0Z" fill="none" stroke="white" opacity=".04"/>
</svg>