<svg xmlns="http://www.w3.org/2000/svg" width="900" height="500" viewBox="0 0 900 500">
<defs><linearGradient id="bg" x1="0" y1="0" x2="1" y2="1"><stop stop-color="#805b08"/><stop offset=".55" stop-color="#1f1704"/><stop offset="1" stop-color="#050505"/></linearGradient><radialGradient id="glow"><stop stop-color="#d49a12" stop-opacity=".38"/><stop offset="1" stop-color="#d49a12" stop-opacity="0"/></radialGradient></defs>
<rect width="900" height="500" fill="url(#bg)"/><circle cx="573" cy="266" r="270" fill="url(#glow)"/>
<circle cx="620" cy="404" r="90" fill="white" opacity="0.07"/><circle cx="198" cy="206" r="96" fill="white" opacity="0.15"/><circle cx="520" cy="287" r="96" fill="white" opacity="0.16"/><circle cx="595" cy="224" r="126" fill="white" opacity="0.11"/><circle cx="696" cy="352" r="132" fill="white" opacity="0.10"/><polyline points="70,333 150,348 230,337 310,309 390,221 470,169 550,195 630,164 710,120 790,90" fill="none" stroke="#d49a12" stroke-width="10" opacity=".8"/><rect x="100" y="196" width="32" height="214" rx="5" fill="white" opacity=".16"/><rect x="205" y="348" width="32" height="62" rx="5" fill="white" opacity=".16"/><rect x="310" y="229" width="32" height="181" rx="5" fill="white" opacity=".16"/><rect x="415" y="323" width="32" height="87" rx="5" fill="white" opacity=".16"/><rect x="520" y="307" width="32" height="103" rx="5" fill="white" opacity=".16"/><rect x="625" y="228" width="32" height="182" rx="5" fill="white" opacity=".16"/><rect x="730" y="303" width="32" height="107" rx="5" fill="white" opacity=".16"/><rect x="835" y="256" width="32" height="154" rx="5" fill="white" opacity=".16"/>
<path d="M0 0H900V500H0Z" fill="none" stroke="white" opacity=".04"/>
</svg>