<svg xmlns="http://www.w3.org/2000/svg" width="900" height="500" viewBox="0 0 900 500">
<defs><linearGradient id="bg" x1="0" y1="0" x2="1" y2="1"><stop stop-color="#805b08"/><stop offset=".55" stop-color="#1f1704"/><stop offset="1" stop-color="#050505"/></linearGradient><radialGradient id="glow"><stop stop-color="#d49a12" stop-opacity=".38"/><stop offset="1" stop-color="#d49a12" stop-opacity="0"/></radialGradient></defs>
<rect width="900" height="500" fill="url(#bg)"/><circle cx="661" cy="296" r="270" fill="url(#glow)"/>
<circle cx="445" cy="226" r="98" fill="white" opacity="0.15"/><circle cx="431" cy="429" r="70" fill="white" opacity="0.14"/><circle cx="458" cy="402" r="126" fill="white" opacity="0.09"/><circle cx="832" cy="307" r="137" fill="white" opacity="0.12"/><circle cx="438" cy="158" r="137" fill="white" opacity="0.14"/><rect x="470" y="85" width="340" height="300" fill="none" stroke="white" stroke-width="7" opacity="0.180"/><rect x="488" y="99" width="305" height="272" fill="none" stroke="white" stroke-width="7" opacity="0.168"/><rect x="506" y="113" width="270" height="244" fill="none" stroke="white" stroke-width="7" opacity="0.156"/><rect x="524" y="127" width="235" height="216" fill="none" stroke="white" stroke-width="7" opacity="0.144"/><rect x="542" y="141" width="200" height="188" fill="none" stroke="white" stroke-width="7" opacity="0.132"/><rect x="560" y="155" width="165" height="160" fill="none" stroke="white" stroke-width="7" opacity="0.120"/><rect x="578" y="169" width="130" height="132" fill="none" stroke="white" stroke-width="7" opacity="0.108"/><circle cx="650" cy="235" r="22" fill="#d49a12" opacity=".95"/>
<path d="M0 0H900V500H0Z" fill="none" stroke="white" opacity=".04"/>
</svg>