<svg xmlns="http://www.w3.org/2000/svg" width="900" height="500" viewBox="0 0 900 500">
<defs><linearGradient id="bg" x1="0" y1="0" x2="1" y2="1"><stop stop-color="#8a1117"/><stop offset=".55" stop-color="#25070a"/><stop offset="1" stop-color="#050505"/></linearGradient><radialGradient id="glow"><stop stop-color="#d31822" stop-opacity=".38"/><stop offset="1" stop-color="#d31822" stop-opacity="0"/></radialGradient></defs>
<rect width="900" height="500" fill="url(#bg)"/><circle cx="665" cy="190" r="270" fill="url(#glow)"/>
<circle cx="471" cy="134" r="62" fill="white" opacity="0.15"/><circle cx="766" cy="143" r="74" fill="white" opacity="0.13"/><circle cx="675" cy="278" r="57" fill="white" opacity="0.08"/><circle cx="855" cy="168" r="38" fill="white" opacity="0.10"/><circle cx="577" cy="442" r="123" fill="white" opacity="0.14"/><polyline points="70,273 150,187 230,136 310,125 390,90 470,164 550,90 630,104 710,176 790,205" fill="none" stroke="#d31822" stroke-width="10" opacity=".8"/><rect x="100" y="196" width="32" height="214" rx="5" fill="white" opacity=".16"/><rect x="205" y="240" width="32" height="170" rx="5" fill="white" opacity=".16"/><rect x="310" y="330" width="32" height="80" rx="5" fill="white" opacity=".16"/><rect x="415" y="302" width="32" height="108" rx="5" fill="white" opacity=".16"/><rect x="520" y="209" width="32" height="201" rx="5" fill="white" opacity=".16"/><rect x="625" y="270" width="32" height="140" rx="5" fill="white" opacity=".16"/><rect x="730" y="193" width="32" height="217" rx="5" fill="white" opacity=".16"/><rect x="835" y="341" width="32" height="69" rx="5" fill="white" opacity=".16"/>
<path d="M0 0H900V500H0Z" fill="none" stroke="white" opacity=".04"/>
</svg>