<svg xmlns="http://www.w3.org/2000/svg" width="900" height="500" viewBox="0 0 900 500">
<defs><linearGradient id="bg" x1="0" y1="0" x2="1" y2="1"><stop stop-color="#805b08"/><stop offset=".55" stop-color="#1f1704"/><stop offset="1" stop-color="#050505"/></linearGradient><radialGradient id="glow"><stop stop-color="#d49a12" stop-opacity=".38"/><stop offset="1" stop-color="#d49a12" stop-opacity="0"/></radialGradient></defs>
<rect width="900" height="500" fill="url(#bg)"/><circle cx="662" cy="128" r="270" fill="url(#glow)"/>
<circle cx="265" cy="433" r="101" fill="white" opacity="0.14"/><circle cx="631" cy="292" r="66" fill="white" opacity="0.10"/><circle cx="487" cy="346" r="82" fill="white" opacity="0.12"/><circle cx="145" cy="276" r="93" fill="white" opacity="0.09"/><circle cx="694" cy="94" r="136" fill="white" opacity="0.15"/><circle cx="280" cy="249" r="44" fill="white" opacity=".18"/><path d="M210 410 Q280 300 350 410" fill="white" opacity=".12"/><circle cx="415" cy="249" r="44" fill="white" opacity=".18"/><path d="M345 410 Q415 300 485 410" fill="white" opacity=".12"/><circle cx="546" cy="246" r="44" fill="white" opacity=".18"/><path d="M476 410 Q546 300 616 410" fill="white" opacity=".12"/><circle cx="681" cy="219" r="44" fill="white" opacity=".18"/><path d="M611 410 Q681 300 751 410" fill="white" opacity=".12"/>
<path d="M0 0H900V500H0Z" fill="none" stroke="white" opacity=".04"/>
</svg>