<svg xmlns="http://www.w3.org/2000/svg" width="900" height="500" viewBox="0 0 900 500">
<defs><linearGradient id="bg" x1="0" y1="0" x2="1" y2="1"><stop stop-color="#5b2c76"/><stop offset=".55" stop-color="#180d20"/><stop offset="1" stop-color="#050505"/></linearGradient><radialGradient id="glow"><stop stop-color="#9c5fbc" stop-opacity=".38"/><stop offset="1" stop-color="#9c5fbc" stop-opacity="0"/></radialGradient></defs>
<rect width="900" height="500" fill="url(#bg)"/><circle cx="682" cy="259" r="270" fill="url(#glow)"/>
<circle cx="746" cy="406" r="127" fill="white" opacity="0.06"/><circle cx="829" cy="432" r="83" fill="white" opacity="0.12"/><circle cx="460" cy="205" r="114" fill="white" opacity="0.13"/><circle cx="126" cy="111" r="125" fill="white" opacity="0.06"/><circle cx="369" cy="353" r="91" fill="white" opacity="0.08"/><rect x="149" y="80" width="341" height="12" rx="6" fill="white" opacity="0.080"/><rect x="149" y="80" width="116" height="12" rx="6" fill="#9c5fbc" opacity=".75"/><rect x="80" y="118" width="370" height="12" rx="6" fill="white" opacity="0.086"/><rect x="80" y="118" width="49" height="12" rx="6" fill="#9c5fbc" opacity=".75"/><rect x="102" y="156" width="399" height="12" rx="6" fill="white" opacity="0.092"/><rect x="102" y="156" width="108" height="12" rx="6" fill="#9c5fbc" opacity=".75"/><rect x="142" y="194" width="494" height="12" rx="6" fill="white" opacity="0.098"/><rect x="142" y="194" width="43" height="12" rx="6" fill="#9c5fbc" opacity=".75"/><rect x="76" y="232" width="497" height="12" rx="6" fill="white" opacity="0.104"/><rect x="76" y="232" width="138" height="12" rx="6" fill="#9c5fbc" opacity=".75"/><rect x="151" y="270" width="488" height="12" rx="6" fill="white" opacity="0.110"/><rect x="151" y="270" width="89" height="12" rx="6" fill="#9c5fbc" opacity=".75"/><rect x="76" y="308" width="608" height="12" rx="6" fill="white" opacity="0.116"/><rect x="76" y="308" width="42" height="12" rx="6" fill="#9c5fbc" opacity=".75"/><rect x="82" y="346" width="544" height="12" rx="6" fill="white" opacity="0.122"/><rect x="82" y="346" width="68" height="12" rx="6" fill="#9c5fbc" opacity=".75"/><rect x="93" y="384" width="552" height="12" rx="6" fill="white" opacity="0.128"/><rect x="93" y="384" width="129" height="12" rx="6" fill="#9c5fbc" opacity=".75"/>
<path d="M0 0H900V500H0Z" fill="none" stroke="white" opacity=".04"/>
</svg>